<?xml version="1.0" encoding="utf-8"?>
<!-- Generator: Adobe Illustrator 22.1.0, SVG Export Plug-In . SVG Version: 6.00 Build 0)  -->
<svg version="1.1" id="Calque_1" xmlns="http://www.w3.org/2000/svg" xmlns:xlink="http://www.w3.org/1999/xlink" x="0px" y="0px"
	 viewBox="0 0 1920 1047" style="enable-background:new 0 0 1920 1047;" xml:space="preserve">
<style type="text/css">
	.st0{fill:url(#SVGID_1_);}
	.st1{fill:none;stroke:#E8D8BC;stroke-width:3.4909;stroke-linecap:round;stroke-linejoin:round;stroke-miterlimit:10;}
	.st2{fill:none;stroke:#02737D;stroke-width:3.4909;stroke-linecap:round;stroke-linejoin:round;stroke-miterlimit:10;}
	.st3{opacity:0.5;fill:#02737D;enable-background:new    ;}
	.st4{fill:#02737D;}
	.st5{fill:#E8D8BC;}
	.st6{font-family:'Roboto-Medium';}
	.st7{font-size:29.6727px;}
	.st8{font-family:'Roboto-Light';}
	.st9{font-size:45.3818px;}
</style>
<linearGradient id="SVGID_1_" gradientUnits="userSpaceOnUse" x1="1902.9226" y1="9.5781" x2="14.3742" y2="1038.5947" gradientTransform="matrix(1 0 0 -1 0 1047)">
	<stop  offset="0" style="stop-color:#003B47"/>
	<stop  offset="1" style="stop-color:#01232D"/>
</linearGradient>
<rect class="st0" width="1920" height="1047.3"/>
<line class="st1" x1="1413.8" y1="309.3" x2="506.2" y2="309.3"/>
<polyline class="st2" points="984.7,992.9 960,1012.4 935.3,992.9 "/>
<g>
	<circle class="st3" cx="1902.5" cy="437.3" r="5.1"/>
	<circle class="st3" cx="1902.5" cy="472.1" r="5.1"/>
	<circle class="st3" cx="1902.5" cy="541.8" r="5.1"/>
	<circle class="st3" cx="1902.5" cy="576.7" r="5.1"/>
	<circle class="st3" cx="1902.5" cy="611.6" r="5.1"/>
	<circle class="st4" cx="1902.5" cy="507" r="6.7"/>
</g>
<polyline class="st2" points="935.2,54.4 959.8,34.9 984.5,54.4 "/>
<g>
	<circle class="st4" cx="1274.2" cy="541.9" r="138.5"/>
</g>
<g>
	<circle class="st4" cx="960" cy="541.9" r="138.5"/>
</g>
<g>
	<circle class="st4" cx="645.5" cy="541.9" r="138.5"/>
</g>
<g>
	<text transform="matrix(1 0 0 1 701.5752 273.0895)" class="st5 st6 st7">Un jeune échappe à une peine de prison pour vol:</text>
</g>
<g>
	<text transform="matrix(1 0 0 1 505.8184 273.0895)" class="st5 st8 st9">3</text>
	<text transform="matrix(1 0 0 1 531.0184 273.0895)" class="st5 st8 st7">/3</text>
</g>
<line class="st1" x1="1413.8" y1="309.3" x2="506.2" y2="309.3"/>
<polyline class="st2" points="984.7,992.9 960,1012.4 935.3,992.9 "/>
<g>
	<circle class="st3" cx="1902.5" cy="437.3" r="5.1"/>
	<circle class="st3" cx="1902.5" cy="472.1" r="5.1"/>
	<circle class="st3" cx="1902.5" cy="507" r="5.1"/>
	<circle class="st3" cx="1902.5" cy="576.7" r="5.1"/>
	<circle class="st3" cx="1902.5" cy="611.6" r="5.1"/>
	<circle class="st4" cx="1902.5" cy="541.8" r="6.7"/>
</g>
<polyline class="st2" points="935.1,54.4 959.7,34.9 984.4,54.4 "/>
</svg>
